<?xml version="1.0" encoding="utf-8"?>
<!-- Generator: Adobe Illustrator 24.0.0, SVG Export Plug-In . SVG Version: 6.00 Build 0)  -->
<svg version="1.1" id="Capa_1" xmlns="http://www.w3.org/2000/svg" xmlns:xlink="http://www.w3.org/1999/xlink" x="0px" y="0px"
	 viewBox="0 0 97.6 97.6" style="enable-background:new 0 0 97.6 97.6;" xml:space="preserve">
<style type="text/css">
	.st0{fill:#FFFFFF;}
</style>
<g>
	<g>
		<path class="st0" d="M7.2,57.3L0.6,38.5c-1-2.7-0.7-5.4,0.8-7.5s4-3.3,6.8-3.3h47c2,0,3.6,1.6,3.6,3.6s-1.6,3.6-3.6,3.6h-47
			c-0.6,0-0.8,0.1-0.9,0.2c0,0.1-0.1,0.4,0.1,0.9L14,54.9c0.6,1.8,3.1,3.5,5,3.5h34.1c2,0,4.6-1.8,5.3-3.6l13.8-35
			c1.8-4.6,7.1-8.2,12-8.2h9.9c2,0,3.6,1.6,3.6,3.6s-1.6,3.6-3.6,3.6h-9.8c-2,0-4.6,1.8-5.3,3.6l-13.8,35c-1.8,4.6-7.1,8.2-12,8.2
			H19.1C14.1,65.6,8.9,61.9,7.2,57.3z"/>
	</g>
	<g>
		<circle class="st0" cx="62.4" cy="78" r="8"/>
	</g>
	<g>
		<circle class="st0" cx="11" cy="78" r="8"/>
	</g>
	<g>
		<path class="st0" d="M17.4,41.8c0-1,0.8-1.8,1.8-1.8h31.9c1,0,1.8,0.8,1.8,1.8s-0.8,1.8-1.8,1.8H19.2
			C18.2,43.6,17.4,42.8,17.4,41.8z"/>
	</g>
	<g>
		<path class="st0" d="M19.8,50.8c0-1,0.8-1.8,1.8-1.8h26.2c1,0,1.8,0.8,1.8,1.8s-0.8,1.8-1.8,1.8H21.6
			C20.7,52.6,19.8,51.8,19.8,50.8z"/>
	</g>
</g>
</svg>
